<svg xmlns="http://www.w3.org/2000/svg" xmlns:xlink="http://www.w3.org/1999/xlink" preserveAspectRatio="xMidYMid meet" width="32" height="32" viewBox="0 0 32 32" style="width:100%;height:100%"><defs><animateTransform repeatCount="indefinite" dur="1s" begin="0s" xlink:href="#_R_G_L_0_G_L_0_G_L_0_G" fill="freeze" attributeName="transform" from="0" to="0" type="rotate" additive="sum" keyTimes="0;0.2333333;0.4333333;0.6666667;0.9666667;1" values="0;27;9;27;0;0" keySplines="0.167 0.167 0.667 1;0.333 0 0.667 1;0.333 0 0.667 1;0.333 0 0.667 1;0 0 0 0" calcMode="spline"/><animateTransform repeatCount="indefinite" dur="1s" begin="0s" xlink:href="#_R_G_L_0_G_L_0_G_L_0_G" fill="freeze" attributeName="transform" from="18.012 -22.68" to="18.012 -22.68" type="translate" additive="sum" keyTimes="0;1" values="18.012 -22.68;18.012 -22.68" keySplines="0 0 1 1" calcMode="spline"/><animateMotion repeatCount="indefinite" dur="1s" begin="0s" xlink:href="#_R_G_L_0_G_L_0_G" fill="freeze" keyTimes="0;0.1333333;0.3;0.5;0.7;0.8333333;0.9666667;1" path="M117.05 117.04 C117.05,117.04 117.05,124.04 117.05,124.04 C117.05,124.04 117.05,98.81 117.05,98.81 C117.05,98.81 117.05,82.04 117.05,82.04 C117.05,82.04 117.05,103.81 117.05,103.81 C117.05,103.81 117.05,124.04 117.05,124.04 C117.05,124.04 117.05,117.04 117.05,117.04 C117.05,117.04 117.05,117.04 117.05,117.04 " keyPoints="0;0.07;0.33;0.5;0.72;0.93;1;1" keySplines="0.167 0.167 0.667 1;0.333 0 0.667 0.768;0.333 0.419 0.667 1;0.333 0 0.667 0.677;0.333 0.232 0.667 1;0.333 0 0.833 0.833;0 0 0 0" calcMode="spline"/><animateTransform repeatCount="indefinite" dur="1s" begin="0s" xlink:href="#_R_G_L_0_G_L_0_G" fill="freeze" attributeName="transform" from="1 1" to="1 1" type="scale" additive="sum" keyTimes="0;0.1333333;0.3;0.5;0.7;0.8333333;0.9666667;1" values="1 1;1.1 0.9;0.9 1.1;1.1 1.1;0.9 1.1;1.1 0.9;1 1;1 1" keySplines="0.167 0.167 0.667 1;0.333 0 0.667 1;0.333 0 0.667 1;0.333 0 0.667 1;0.333 0 0.667 1;0.333 0 0.833 0.833;0 0 0 0" calcMode="spline"/><animateTransform repeatCount="indefinite" dur="1s" begin="0s" xlink:href="#_R_G_L_0_G_L_0_G" fill="freeze" attributeName="transform" from="-54 -71" to="-54 -71" type="translate" additive="sum" keyTimes="0;1" values="-54 -71;-54 -71" keySplines="0 0 1 1" calcMode="spline"/><animate attributeType="XML" attributeName="opacity" dur="1s" from="0" to="1" xlink:href="#time_group"/></defs><g id="_R_G"><g id="_R_G_L_0_G" transform=" translate(16, 16) scale(0.14, 0.14) translate(-117, -117)"><g id="_R_G_L_0_G_L_0_G"><g id="_R_G_L_0_G_L_0_G_L_2_G" transform=" translate(53.953, 93.462) translate(0, 0)"><path id="_R_G_L_0_G_L_0_G_L_2_G_D_0_P_0" fill="#ffffff" fill-opacity="1" fill-rule="nonzero" d=" M28.28 45.53 C33.98,42.95 39.64,37.88 44.54,27.56 C44.54,27.56 44.57,27.59 44.57,27.59 C53.51,9.32 60.95,-25.75 42.83,-41.05 C35.87,-46.6 23.78,-50.65 14.99,-46.78 C14,-46.33 12.94,-45.79 11.84,-45.16 C10.91,-44.62 10.07,-44.08 9.29,-43.54 C6.02,-41.95 2.93,-41.17 0.68,-41.08 C-7.87,-40.63 -12.04,-47.32 -20.02,-48.31 C-26.65,-49.18 -33.64,-46 -39.01,-42.34 C-46.96,-36.49 -52.06,-26.35 -53.8,-12.13 C-54.37,-4.84 -53.47,5.87 -48.16,18.35 C-45.88,23.27 -36.53,39.83 -29.41,44.3 C-25.27,47.03 -21.7,48.17 -19.3,48.29 C-10.18,49.64 -6.94,42.47 1.4,43.01 C8.12,43.46 9.79,48.26 17.42,48.29 C19.81,48.59 23.9,47.9 28.28,45.53z "/></g><g id="_R_G_L_0_G_L_0_G_L_1_G" transform=" translate(43.505, 36.003) translate(0, 0)"><path id="_R_G_L_0_G_L_0_G_L_1_G_D_0_P_0" fill="#ffffff" fill-opacity="1" fill-rule="nonzero" d=" M7.68 10.72 C8.43,11.54 8.99,12.15 9.44,11.98 C9.44,11.98 9.46,12 9.46,12 C9.96,11.89 10.56,11.93 10.49,11.09 C9.83,2.63 3.11,-4.87 -3.81,-11.03 C-4.49,-11.66 -5.67,-12.19 -7.13,-11.94 C-8.83,-11.59 -10.68,-9.45 -10.48,-7.27 C-10.18,-6.34 -9.64,-6.43 -8.92,-5.82 C-0.33,-0.07 0.25,0.21 7.68,10.72z "/></g><g id="_R_G_L_0_G_L_0_G_L_0_G" transform=" translate(55.508, 42.632)"><path id="_R_G_L_0_G_L_0_G_L_0_G_D_0_P_0" fill="#ffffff" fill-opacity="1" fill-rule="nonzero" d=" M-8.64 18.48 C1.89,11.82 11.1,11.76 17.01,-1.23 C17.01,-1.23 17.01,-1.2 17.01,-1.2 C18.03,-3.45 19.29,-9.24 19.47,-15.18 C19.56,-17.67 19.47,-20.16 19.23,-22.68 C9.12,-21.96 -0.54,-17.85 -7.65,-10.47 C-12.09,-5.85 -15.54,0.21 -17.52,6.78 C-18.24,9.48 -18.87,13.68 -19.47,17.73 C-19.35,18.87 -19.44,20.01 -19.5,21.09 C-18.42,17.46 -16.29,12.3 -12.57,7.5 C-6.15,-0.06 1.08,-3.99 1.74,-4.23 C2.73,-4.44 -1.74,-2.49 -8.88,9.24 C-11.76,13.95 -12.27,17.79 -15,22.68 C-13.53,21.66 -11.49,20.28 -8.64,18.48z "/><path id="_R_G_L_0_G_L_0_G_L_0_G_D_1_P_0" fill="#ffffff" fill-opacity="1" fill-rule="nonzero" d="  "/><path id="_R_G_L_0_G_L_0_G_L_0_G_D_2_P_0" stroke="#ff0000" stroke-linecap="round" stroke-linejoin="round" fill="none" stroke-width="0" stroke-opacity="1" d="  "/></g></g></g></g><g id="time_group"/></svg>